# Blender v3.2.0 OBJ File: ''
# www.blender.org
mtllib Grass.mtl
o Cube
v 1.000000 1.000000 -1.000000
v 1.000000 -1.000000 -1.000000
v 1.000000 1.000000 1.000000
v 1.000000 -1.000000 1.000000
v -1.000000 1.000000 -1.000000
v -1.000000 -1.000000 -1.000000
v -1.000000 1.000000 1.000000
v -1.000000 -1.000000 1.000000
vt 0.250961 0.689419
vt 0.500961 0.689419
vt 0.500961 0.995433
vt 0.250961 0.995433
vt 0.498374 0.331566
vt 0.500654 0.664885
vt 0.252267 0.667905
vt 0.249987 0.334585
vt 0.499037 0.335643
vt 0.499430 0.668976
vt 0.251604 0.669495
vt 0.251211 0.336162
vt 0.125000 0.500000
vt 0.375000 0.500000
vt 0.375000 0.750000
vt 0.125000 0.750000
vt 0.503740 0.334506
vt 0.504521 0.667838
vt 0.253463 0.668883
vt 0.252682 0.335552
vt 0.497891 0.330775
vt 0.497769 0.667365
vt 0.252243 0.667207
vt 0.252365 0.330617
vn 0.0000 1.0000 0.0000
vn 0.0000 0.0000 1.0000
vn -1.0000 0.0000 0.0000
vn 0.0000 -1.0000 0.0000
vn 1.0000 0.0000 0.0000
vn 0.0000 0.0000 -1.0000
usemtl Material
s off
f 1/1/1 5/2/1 7/3/1 3/4/1
f 4/5/2 3/6/2 7/7/2 8/8/2
f 8/9/3 7/10/3 5/11/3 6/12/3
f 6/13/4 2/14/4 4/15/4 8/16/4
f 2/17/5 1/18/5 3/19/5 4/20/5
f 6/21/6 5/22/6 1/23/6 2/24/6
