# Blender v3.2.0 OBJ File: ''
# www.blender.org
mtllib TNT.mtl
o Minecraft_TNT_Mesh
v -0.106276 -0.106276 0.106276
v 0.000000 -0.106276 0.106276
v 0.106276 -0.106276 0.106276
v -0.106276 -0.000000 0.106276
v 0.000000 -0.000000 0.106276
v 0.106276 -0.000000 0.106276
v -0.106276 0.106276 0.106276
v 0.000000 0.106276 0.106276
v 0.106276 0.106276 0.106276
v -0.106276 0.106276 0.000000
v 0.000000 0.106276 0.000000
v 0.106276 0.106276 0.000000
v -0.106276 0.106276 -0.106276
v 0.000000 0.106276 -0.106276
v 0.106276 0.106276 -0.106276
v -0.106276 0.000000 -0.106276
v 0.000000 0.000000 -0.106276
v 0.106276 0.000000 -0.106276
v -0.106276 -0.106276 -0.106276
v 0.000000 -0.106276 -0.106276
v 0.106276 -0.106276 -0.106276
v -0.106276 -0.106276 -0.000000
v 0.000000 -0.106276 -0.000000
v 0.106276 -0.106276 -0.000000
v 0.106276 0.000000 0.000000
v -0.106276 0.000000 0.000000
vt 0.380621 0.022485
vt 0.500000 0.022485
vt 0.500000 0.141863
vt 0.380621 0.141863
vt 0.619379 0.022485
vt 0.619379 0.141863
vt 0.500000 0.261242
vt 0.380621 0.261242
vt 0.619379 0.261242
vt 0.500000 0.380621
vt 0.380621 0.380621
vt 0.619379 0.380621
vt 0.500000 0.500000
vt 0.380621 0.500000
vt 0.619379 0.500000
vt 0.500000 0.619379
vt 0.380621 0.619379
vt 0.619379 0.619379
vt 0.500000 0.738758
vt 0.380621 0.738758
vt 0.619379 0.738758
vt 0.500000 0.858137
vt 0.380621 0.858137
vt 0.619379 0.858137
vt 0.500000 0.977515
vt 0.380621 0.977515
vt 0.619379 0.977515
vt 0.738758 0.022485
vt 0.858137 0.022485
vt 0.858137 0.141863
vt 0.738758 0.141863
vt 0.858137 0.261242
vt 0.738758 0.261242
vt 0.141863 0.022485
vt 0.261242 0.022485
vt 0.261242 0.141863
vt 0.141863 0.141863
vt 0.261242 0.261242
vt 0.141863 0.261242
vn 0.0000 -0.0000 1.0000
vn 0.0000 1.0000 0.0000
vn 0.0000 0.0000 -1.0000
vn 0.0000 -1.0000 -0.0000
vn 1.0000 0.0000 0.0000
vn -1.0000 0.0000 0.0000
usemtl Minecraft_TNT_Tex
s 1
f 1/1/1 2/2/1 5/3/1 4/4/1
f 2/2/1 3/5/1 6/6/1 5/3/1
f 4/4/1 5/3/1 8/7/1 7/8/1
f 5/3/1 6/6/1 9/9/1 8/7/1
f 7/8/2 8/7/2 11/10/2 10/11/2
f 8/7/2 9/9/2 12/12/2 11/10/2
f 10/11/2 11/10/2 14/13/2 13/14/2
f 11/10/2 12/12/2 15/15/2 14/13/2
f 13/14/3 14/13/3 17/16/3 16/17/3
f 14/13/3 15/15/3 18/18/3 17/16/3
f 16/17/3 17/16/3 20/19/3 19/20/3
f 17/16/3 18/18/3 21/21/3 20/19/3
f 19/20/4 20/19/4 23/22/4 22/23/4
f 20/19/4 21/21/4 24/24/4 23/22/4
f 22/23/4 23/22/4 2/25/4 1/26/4
f 23/22/4 24/24/4 3/27/4 2/25/4
f 24/28/5 21/29/5 18/30/5 25/31/5
f 3/5/5 24/28/5 25/31/5 6/6/5
f 25/31/5 18/30/5 15/32/5 12/33/5
f 6/6/5 25/31/5 12/33/5 9/9/5
f 19/34/6 22/35/6 26/36/6 16/37/6
f 22/35/6 1/1/6 4/4/6 26/36/6
f 16/37/6 26/36/6 10/38/6 13/39/6
f 26/36/6 4/4/6 7/8/6 10/38/6
